<svg xmlns="http://www.w3.org/2000/svg" viewBox="0 0 343.8 272.1"><defs><style>.cls-1{fill:#040000;}</style></defs><g id="레이어_2" data-name="레이어 2"><g id="레이어_1-2" data-name="레이어 1"><path class="cls-1" d="M223.3,124.08c-6.79-1.32-10.56-.3-10.56-.3,6.6,7.81,8.63,12.41,12.67,24.1,5.17,15,8.49,31.91,10.63,47.84a457.22,457.22,0,0,1,3.78,51A143.29,143.29,0,0,0,290,178.88c-5.25-7.79-10.32-14.55-15.19-20.5C250.57,128.84,234.43,126.23,223.3,124.08Z"/><path class="cls-1" d="M212.17,186a288,288,0,0,0-7.42-33.33C199.89,187.36,98.48,254.9,98.48,254.9a128.93,128.93,0,0,0,106.27,10.19c9.73-14.15,11.45-35.72,10.1-56.19C214.32,200.92,213.33,193.11,212.17,186Z"/><path class="cls-1" d="M146.32,185.16l0,0c-18.19-6-31.19-21.61-31.19-40l-1.05-.12c-39,3.39-85.29-13.67-85.29-13.67-.91,0-1.52,19.1-1.46,20.27,0,.69.13,1.38.18,2.07.11,1.45.23,2.9.4,4.34.09.8.23,1.59.34,2.39.18,1.31.37,2.63.6,3.93.15.82.33,1.63.49,2.45.26,1.26.52,2.52.82,3.77.19.81.41,1.62.62,2.42.33,1.24.67,2.49,1,3.72.23.77.48,1.54.73,2.31.41,1.25.83,2.49,1.28,3.72.27.73.54,1.45.82,2.17.5,1.27,1,2.53,1.55,3.77q.42,1,.87,2c.59,1.3,1.21,2.59,1.85,3.87.29.58.58,1.16.88,1.73q1.07,2,2.22,4c.27.47.53.95.81,1.42.87,1.46,1.77,2.89,2.7,4.32.21.32.41.65.63,1q1.64,2.47,3.42,4.87l.19.26a127.07,127.07,0,0,0,22.89,23.54C146,206.54,146.32,185.16,146.32,185.16Z"/><path class="cls-1" d="M113.33,127c.8,0,1.1,0,1.89-.06h0l-.12,0a62.05,62.05,0,0,1-17.13-11.45A94.45,94.45,0,0,1,84.17,99.23,137.61,137.61,0,0,1,73.74,80.94,168.57,168.57,0,0,1,66.5,63.26,96.52,96.52,0,0,1,62.78,50.7c-.28-1.18-1.11-3.64-1.11-3.64-3.49,10.26-9.79,16.19-14.17,26a23.42,23.42,0,0,0-.37,19c-6.47-2-12.69.24-18.55,3a108.19,108.19,0,0,1-14.93,5.79A57.6,57.6,0,0,1,5,103.1a49.57,49.57,0,0,1-5,.33S69,128.6,113.33,127Z"/><path class="cls-1" d="M343.74,66.28a2.5,2.5,0,0,0-.05-.29c-3.78-17.77-25.31-25.48-40-27.59-9.66-1.39-19.47-1.28-29.1-2.86-25.82-4.26-46.27-23.4-71.44-30.66-11-3.16-22.46-5.21-33.93-4.83-26.27.87-49,17.81-69.08,33.11-3.83,2.92-12.91,8.19-13,14a9.63,9.63,0,0,0,.5,3.84c2.08,7.12,15,17.37,37.24,29.64q9.72,5.35,21.71,11.18a16.85,16.85,0,0,1,2,1.13,57.64,57.64,0,0,1,15.52-2.3c25.71-.56,44.48,22.91,44.48,22.91a23.33,23.33,0,0,0-4.4-11.77,42.68,42.68,0,0,0-13.66-11.86,48.14,48.14,0,0,0-27.79-6.2c-7.06.55-14.1.13-20.74-2.51-9.29-3.7-16.28-8.4-24.72-13.77-3.76-2.4-7.44-5-11-7.7.92.22,1.83.43,2.72.62a44.1,44.1,0,0,0,9,.5c13.74-.18,17.5-2.64,30-3.31,11.81-.62,29.82,2.53,40.93,7.56a64,64,0,0,1,24,18.84c1.24,1.59,3.89,7.59,5.52,8.28C239,100.84,264,115.46,285,139.87a164.94,164.94,0,0,1,11.32,14.68,151.72,151.72,0,0,0-3.45-67.69c-.08-.28-.17-.54-.25-.82-1.71-8,19.25-11.5,23.64-12.39C322,72.49,345.11,74.77,343.74,66.28ZM164.58,40a44.8,44.8,0,0,1-6.16,2.56c-7.71,1.13-14.07,1.34-20.23-1-2.44-.94-4.86-2.19-5.2-5.21s1.59-4.82,3.77-6A47.46,47.46,0,0,1,146.68,26c5.26-1.47,10.7-2.1,16.09-.41a7.49,7.49,0,0,1,5.59,6.73A7.21,7.21,0,0,1,164.58,40Z"/></g></g></svg>