<svg xmlns="http://www.w3.org/2000/svg" viewBox="0 0 140.83 129.03"><defs><style>.cls-1{fill:#fff;}</style></defs><g id="레이어_2" data-name="레이어 2"><g id="레이어_1-2" data-name="레이어 1"><path class="cls-1" d="M35,108.2a4.61,4.61,0,0,1-1.72,2.17,4.32,4.32,0,0,1-2.56.92,2,2,0,0,1-1.84-.92,2.34,2.34,0,0,1-.12-2.17A4.79,4.79,0,0,1,30.46,106,4.23,4.23,0,0,1,33,105a2.06,2.06,0,0,1,1.88.93A2.4,2.4,0,0,1,35,108.2Zm-2.13,5.17-5.57,15.3H21.54l5.57-15.3Z"/><path class="cls-1" d="M52.06,113.37l-11.6,15.3H35l-.33-14.35,5.85-1.52L40.27,122l6.08-8.64Z"/><path class="cls-1" d="M61.43,112.83A5.35,5.35,0,0,1,65,113.91a4.13,4.13,0,0,1,1.43,2.87,8.89,8.89,0,0,1-.62,4l-.61,1.67h-9.3a1.76,1.76,0,0,0,.63,1.53,3.21,3.21,0,0,0,2.08.55,11.42,11.42,0,0,0,4.58-1l.19,3.88a11.92,11.92,0,0,1-3.15,1.17,16,16,0,0,1-3.82.47A9.43,9.43,0,0,1,52,128.1a4.29,4.29,0,0,1-2.24-2.73,7.14,7.14,0,0,1,.41-4.34,12.57,12.57,0,0,1,2.66-4.35,12.09,12.09,0,0,1,4-2.85A11,11,0,0,1,61.43,112.83Zm-1.84,4.61a2.73,2.73,0,0,0-1.64.66,3.15,3.15,0,0,0-1.13,1.51h4a2.1,2.1,0,0,0,0-1.48Q60.58,117.44,59.59,117.44Z"/><path class="cls-1" d="M71.1,118.51H68.58L70.22,114h2.52l.52-1.42a8.37,8.37,0,0,1,2.2-3.33,10.19,10.19,0,0,1,3.39-2.06,11,11,0,0,1,3.79-.7,6.26,6.26,0,0,1,2.19.43,3.64,3.64,0,0,1,1.54.93l-3.07,3.91a3.37,3.37,0,0,0-2-.6,2.42,2.42,0,0,0-1.51.55,3.34,3.34,0,0,0-1,1.5l-.29.79h4.23l-1.11,4.51H76.84L73.13,128.7H67.39Z"/><path class="cls-1" d="M94.53,106.4l-8.11,22.27H80.68l8-21.92Z"/><path class="cls-1" d="M99.22,117.5a9.14,9.14,0,0,0-1.94.27,16.42,16.42,0,0,0-2.21.65v-4.14a23,23,0,0,1,3.53-1,18.14,18.14,0,0,1,3.75-.43q3.06,0,4.08,1.71c.68,1.13.66,2.69-.06,4.66l-3.44,9.47h-2.78l-1.06-1.58A6.56,6.56,0,0,1,94.94,129c-1.89,0-3.15-.47-3.77-1.42s-.64-2.22,0-3.84q1.62-4.48,7.62-4.48h1.83a1.54,1.54,0,0,0-.17-1.33A1.45,1.45,0,0,0,99.22,117.5Zm-1.53,4.92a1.93,1.93,0,0,0-1.75,1.23.88.88,0,0,0,0,.77.7.7,0,0,0,.63.3,4.54,4.54,0,0,0,2.33-.85l.53-1.45Z"/><path class="cls-1" d="M111.47,129a13.67,13.67,0,0,1-3.2-.44,5.16,5.16,0,0,1-2.68-1.35l2.93-3.63a7.93,7.93,0,0,0,2,.76,8,8,0,0,0,2,.31,2.54,2.54,0,0,0,1-.19.91.91,0,0,0,.56-.5c0-.13,0-.28-.26-.46a3.32,3.32,0,0,0-.91-.49,9,9,0,0,1-3.19-2,2.76,2.76,0,0,1-.42-3.06,7.08,7.08,0,0,1,3.17-3.75,10.57,10.57,0,0,1,5.47-1.36,11.62,11.62,0,0,1,2.85.37,4.47,4.47,0,0,1,2.33,1.27l-2.93,3.63a9.37,9.37,0,0,0-1.7-.66,6.33,6.33,0,0,0-1.72-.25,3.42,3.42,0,0,0-1.21.19.91.91,0,0,0-.62.5c0,.13,0,.27.28.44a4.59,4.59,0,0,0,1,.51,8.14,8.14,0,0,1,3.14,2,2.83,2.83,0,0,1,.38,3.07,7.33,7.33,0,0,1-3,3.77A9.52,9.52,0,0,1,111.47,129Z"/><path class="cls-1" d="M140.29,118.79l-3.59,9.88H131l3.39-9.34c.45-1.22.12-1.83-1-1.83a6.56,6.56,0,0,0-1.52.27,18.22,18.22,0,0,0-1.89.61l-3.74,10.29h-5.74l8-21.92,5.87-.35-2.83,7.79a14.3,14.3,0,0,1,5.4-1.33c1.85,0,3,.55,3.57,1.63A5.5,5.5,0,0,1,140.29,118.79Z"/><path class="cls-1" d="M23.3,118.4A17.2,17.2,0,0,1,20,124a15.26,15.26,0,0,1-4.9,3.7,13.19,13.19,0,0,1-5.7,1.3H0l7.65-21h9.51a8,8,0,0,1,4.91,1.33,5.19,5.19,0,0,1,2,3.68A11.51,11.51,0,0,1,23.3,118.4Zm-5.81,0a6.63,6.63,0,0,0,.41-4.31,2.44,2.44,0,0,0-2.62-1.65H11.66L7.23,124.61h3.4a5.9,5.9,0,0,0,3.9-1.6A10.68,10.68,0,0,0,17.49,118.4Z"/><path class="cls-1" d="M86.75,39.44a8.21,8.21,0,0,0-3.36-.1c2.1,2.49,2.75,3.95,4,7.67a80.65,80.65,0,0,1,3.38,15.2A144.88,144.88,0,0,1,92,78.44a45.51,45.51,0,0,0,15.94-21.58c-1.67-2.47-3.28-4.62-4.83-6.52C95.42,41,90.29,40.13,86.75,39.44Z"/><path class="cls-1" d="M83.21,59.11a91.08,91.08,0,0,0-2.35-10.59C79.31,59.56,47.08,81,47.08,81a41,41,0,0,0,33.78,3.25C84,79.76,84.49,72.91,84.07,66.4,83.9,63.86,83.58,61.38,83.21,59.11Z"/><path class="cls-1" d="M62.28,58.86v0c-5.78-1.91-9.92-6.87-9.92-12.7l-.33,0c-12.4,1.07-27.11-4.35-27.11-4.35-.29,0-.48,6.07-.46,6.45,0,.22,0,.43.05.65,0,.46.08.92.13,1.38,0,.26.07.51.11.76.06.42.12.84.19,1.25s.1.52.16.78.16.8.25,1.2l.2.77c.11.39.21.79.33,1.18l.24.73c.12.4.26.8.4,1.19l.26.69c.16.4.32.8.49,1.2.1.21.19.42.28.62.19.42.39.83.59,1.23.09.19.18.37.28.56l.7,1.28.26.45c.28.46.57.92.86,1.37l.2.31c.35.53.71,1,1.09,1.55l.06.08a40.18,40.18,0,0,0,7.27,7.48C62.19,65.65,62.28,58.86,62.28,58.86Z"/><path class="cls-1" d="M51.79,40.37c.26,0,.36,0,.61,0h-.06A19.72,19.72,0,0,1,46.9,36.7a29.56,29.56,0,0,1-4.37-5.16,43.35,43.35,0,0,1-3.32-5.81,54.75,54.75,0,0,1-2.3-5.62,29.83,29.83,0,0,1-1.18-4c-.09-.37-.36-1.15-.36-1.15-1.1,3.26-3.11,5.14-4.5,8.28a7.45,7.45,0,0,0-.12,6c-2.05-.62-4,.08-5.89.95a33.79,33.79,0,0,1-4.75,1.84,18.7,18.7,0,0,1-2.74.71c-.53.07-1.07.09-1.6.11C15.77,32.88,37.71,40.88,51.79,40.37Z"/><path class="cls-1" d="M125,21.07s0-.06,0-.1c-1.2-5.64-8-8.09-12.71-8.76-3.06-.45-6.18-.41-9.24-.91C94.86,9.94,88.36,3.86,80.36,1.55A35.26,35.26,0,0,0,69.57,0C61.22.29,54,5.68,47.61,10.54c-1.21.93-4.1,2.6-4.11,4.44a2.79,2.79,0,0,0,.16,1.21c.66,2.27,4.75,5.53,11.83,9.43,2.06,1.13,4.37,2.32,6.9,3.55a5.48,5.48,0,0,1,.64.36A18.6,18.6,0,0,1,68,28.8c8.17-.18,14.14,7.28,14.14,7.28a7.52,7.52,0,0,0-1.4-3.74,13.68,13.68,0,0,0-4.35-3.77,15.28,15.28,0,0,0-8.83-2,14.62,14.62,0,0,1-6.59-.8,44.5,44.5,0,0,1-7.86-4.38c-1.19-.76-2.37-1.57-3.49-2.44l.86.2a14.37,14.37,0,0,0,2.86.15c4.37,0,5.56-.84,9.52-1a32.54,32.54,0,0,1,13,2.4,20.22,20.22,0,0,1,5.39,3.57,20.52,20.52,0,0,1,2.24,2.42c.4.51,1.24,2.42,1.76,2.63a57,57,0,0,1,21.13,15.16,51,51,0,0,1,3.6,4.67,47.73,47.73,0,0,0,.73-8.34,48.34,48.34,0,0,0-1.82-13.18,2.58,2.58,0,0,1-.08-.26c-.55-2.54,6.12-3.66,7.51-3.94C118.13,23,125.47,23.77,125,21.07ZM68.09,12.71a16.36,16.36,0,0,1-2,.82,12.48,12.48,0,0,1-6.43-.33c-.78-.3-1.55-.69-1.66-1.66a2,2,0,0,1,1.2-1.91A15.42,15.42,0,0,1,62.4,8.28a8.81,8.81,0,0,1,5.11-.13,2.38,2.38,0,0,1,1.78,2.14A2.3,2.3,0,0,1,68.09,12.71Z"/></g></g></svg>