<svg id="Capa_1" data-name="Capa 1" xmlns="http://www.w3.org/2000/svg" viewBox="0 0 512 512"><defs><style>.cls-1{fill:#fff;}</style></defs><path class="cls-1" d="M-437.66,231a7.5,7.5,0,0,0,10.54-1.33c11.24-14.49,19.36-24.78,19.44-24.88a7.54,7.54,0,0,0,1.24-2.3c7.32-22.12,29.7-82.6,45.23-96.65,4.08-3.69,21.46-13.71,91.92-39.25A7.53,7.53,0,0,0-264.78,57a7.52,7.52,0,0,0-7.07-5,7.43,7.43,0,0,0-2.56.45c-83.76,30.36-93.64,39.3-96.88,42.24-20.46,18.5-44.68,88.88-49,101.81-2.34,3-9.48,12.05-18.7,24A7.5,7.5,0,0,0-437.66,231Z" transform="translate(574.6 9.44)"/><path class="cls-1" d="M-559.22,392.23l8.59,7.08-12.27,15.48a54.29,54.29,0,0,0,8.55,76,53.32,53.32,0,0,0,39.59,11.46,53.45,53.45,0,0,0,36.1-20l16.85-21.26a53.8,53.8,0,0,0,11-24.78l7.29,5.8a7.51,7.51,0,0,0,5.55,1.57,7.53,7.53,0,0,0,5-2.82l7.3-9.31a41.89,41.89,0,0,0,24.91,4.52,42,42,0,0,0,28.17-16.13l13.09-17a7.51,7.51,0,0,0-1.36-10.54,7.52,7.52,0,0,0-10.54,1.36l-13.09,16.95A27,27,0,0,1-402.57,421a27,27,0,0,1-20.11-5.53,27.6,27.6,0,0,1-4.83-38.56l19.14-24.8,106.2-96.8a23.55,23.55,0,0,0,4.66-5.89c.64.42,1.27.86,1.89,1.34a27.6,27.6,0,0,1,4.83,38.56l-62.16,80.52a7.51,7.51,0,0,0,1.36,10.54A7.52,7.52,0,0,0-341,379l62.16-80.53a42.67,42.67,0,0,0-7.49-59.59,42.62,42.62,0,0,0-8.38-5.09A23.67,23.67,0,0,0-300.23,222a23.65,23.65,0,0,0-14.51-7.92c.68-3.63,1.25-7.35,1.71-11.11,10.95-7.33,20.62-13.91,25.11-17,17.08,3.15,36.5.29,57.79-8.51a169.29,169.29,0,0,0,25.15-13l8.75,3.17c9.34,3.37,20.46,3.08,30.53-.79,13.32-5.13,24.35-15.92,32.77-32.08,16.63-31.92,62.57-35.22,63.27-35.27a7.51,7.51,0,0,0,7-7.94,7.52,7.52,0,0,0-7.5-7.07h-.45C-72.72,84.66-122,88-144,123.82l-135,.08a195.86,195.86,0,0,0,23.24-16.21,254.06,254.06,0,0,0,25.22-23.23,38.25,38.25,0,0,0,20.89-2.1c12.91-5.11,17.49-12.86,25.07-25.71,4-6.79,9-15.25,16.89-26.54C-159.12,18-145.47,10.2-127,7a102.07,102.07,0,0,1,26.44-1A7.51,7.51,0,0,0-92.21-.5a7.52,7.52,0,0,0-6.51-8.4,94.58,94.58,0,0,0-10.84-.54,119.5,119.5,0,0,0-19.58,1.59c-21.4,3.58-38.35,13-49.24,27.26-8,2.62-35.82,11.82-67.66,23A7.52,7.52,0,0,0-250.65,52a7.52,7.52,0,0,0,9.58,4.61c18.94-6.64,36.46-12.58,49.2-16.84-2.16,3.5-4,6.6-5.57,9.28C-205,61.82-207.3,65.3-215.11,68.39a22.78,22.78,0,0,1-15.1.68,7.5,7.5,0,0,0-8.4,2.05c-.42.48-42.54,48.14-83,52.86a7.52,7.52,0,0,0-6.59,8.33c.05.42,3.86,34.46.61,65.54a.09.09,0,0,0,0,.05,148.51,148.51,0,0,1-3.27,19.61c-.18.11-.37.21-.54.33l-143.3,96.63a7.52,7.52,0,0,0-2,10.44,7.51,7.51,0,0,0,10.43,2L-323,230.3a8.69,8.69,0,0,1,11.41,1.52,8.9,8.9,0,0,1-.72,12.34L-419,341.4l-.16.16-.24.25-.37.42a1.34,1.34,0,0,0-.11.14l-19.55,25.31a42.69,42.69,0,0,0,2,54.42l-2.62,3.35-13.29-10.55c-.08-.06-.15-.13-.23-.18l-47.58-37.79c-3-23.57-1.45-42,4.3-52,6.21-10.81,24-35.52,51.44-71.45a7.51,7.51,0,0,0-1.41-10.53,7.5,7.5,0,0,0-10.53,1.41c-28.24,37-45.91,61.55-52.53,73.09-6.16,10.72-8.67,26.35-7.56,46.57l-11.65-9.26a23.84,23.84,0,0,0-14.85-5.16,24,24,0,0,0-18.68,8.88,24.2,24.2,0,0,0,3.41,33.76Zm368.1-238.7-12.29-4.44a7.52,7.52,0,0,0-6.86.92c-.41.29-42,29-77.53,20.63a7.56,7.56,0,0,0-6,1.12c-.1.07-7.52,5.16-17.72,12a377.68,377.68,0,0,0-1-44.84l159.24-.1c-16.64,21.45-35.53,15.53-37.9,14.67ZM-539,408.84l13.85,11.29-16,19.65-13.15-11a38.79,38.79,0,0,1,3.16-4.64Zm22.55,78.44A38.41,38.41,0,0,1-545,479a39.17,39.17,0,0,1-14.38-34.88l14.41,12.06a7.49,7.49,0,0,0,5.54,1.72,7.51,7.51,0,0,0,5.11-2.74l9.63-11.84,36.21,27-2,2.52a38.51,38.51,0,0,1-26,14.46Zm42.86-35.71-5.5,6.94-36.07-26.84,6.41-7.89a7.51,7.51,0,0,0-1.08-10.56l-19.29-15.72a38.26,38.26,0,0,1,18.67-8.75l45.24,35.92a38.78,38.78,0,0,1-8.38,26.9Zm-77.35-83.65a9,9,0,0,1,12.49-1.4l13.64,10.83a52.94,52.94,0,0,0-16.06,10.53l-8.79-7.24a9.13,9.13,0,0,1-1.28-12.72Z" transform="translate(574.6 9.44)"/></svg>